# Blender v2.92.0 OBJ File: 'ShootingRange.blend'
# www.blender.org
mtllib LevelPlaceholder.mtl
o Cube
v 12.500000 0.050000 -12.500000
v 12.500000 -0.050000 -12.500000
v 12.500000 0.050000 12.500000
v 12.500000 -0.050000 12.500000
v -12.500000 0.050000 -12.500000
v -12.500000 -0.050000 -12.500000
v -12.500000 0.050000 12.500000
v -12.500000 -0.050000 12.500000
v 0.000000 0.050000 12.500000
v 0.000000 0.050000 -12.500000
vt 0.750000 0.500000
vt 0.875000 0.500000
vt 0.875000 0.750000
vt 0.750000 0.750000
vt 0.375000 0.750000
vt 0.625000 0.750000
vt 0.625000 0.875000
vt 0.625000 1.000000
vt 0.375000 1.000000
vt 0.375000 0.000000
vt 0.625000 0.000000
vt 0.625000 0.250000
vt 0.375000 0.250000
vt 0.125000 0.500000
vt 0.375000 0.500000
vt 0.125000 0.750000
vt 0.625000 0.500000
vt 0.625000 0.375000
vn 0.0000 1.0000 0.0000
vn 0.0000 0.0000 1.0000
vn -1.0000 0.0000 0.0000
vn 0.0000 -1.0000 0.0000
vn 1.0000 0.0000 0.0000
vn 0.0000 0.0000 -1.0000
usemtl Material
s off
f 10/1/1 5/2/1 7/3/1 9/4/1
f 4/5/2 3/6/2 9/7/2 7/8/2 8/9/2
f 8/10/3 7/11/3 5/12/3 6/13/3
f 6/14/4 2/15/4 4/5/4 8/16/4
f 2/15/5 1/17/5 3/6/5 4/5/5
f 6/13/6 5/12/6 10/18/6 1/17/6 2/15/6
f 1/17/1 10/1/1 9/4/1 3/6/1
