# File produced by Open Asset Import Library (http://www.assimp.sf.net)
# (assimp v3.1.202510665)

mtllib levelPaint.mtl

# vertex positions
v 0.000000 0.050000 -12.500000
v -12.500000 0.050000 -12.500000
v -12.500000 0.050000 12.500000
v 0.000000 0.050000 12.500000
v -12.500000 -0.050000 12.500000
v 12.500000 -0.050000 12.500000
v 12.500000 -0.050000 13.750000
v -12.500000 -0.050000 13.750000
v -12.500000 -0.050000 -12.500000
v -13.750000 -0.050000 12.500000
v -13.750000 -0.050000 -12.500000
v 12.500000 -0.050000 -12.500000
v 12.500000 0.050000 -12.500000
v 12.500000 0.050000 12.500000
v -12.500000 -0.050000 -13.750000
v -12.500000 10.050000 -13.750000
v 12.500000 10.050000 -13.750000
v 12.500000 -0.050000 -13.750000
v 13.750000 -0.050000 -12.500000
v 13.750000 -0.050000 12.500000
v -13.750000 10.050000 12.500000
v -13.750000 -0.050000 13.750000
v -13.750000 10.050000 13.750000
v -12.500000 10.050000 -12.500000
v -12.500000 10.050000 12.500000
v -13.750000 10.050000 -12.500000
v -13.750000 -0.050000 -13.750000
v 12.500000 10.050000 -12.500000
v 12.500000 10.050000 13.750000
v -12.500000 10.050000 13.750000
v 12.500000 10.050000 12.500000
v 13.750000 10.050000 12.500000
v 13.750000 10.050000 -12.500000
v -13.750000 10.050000 -13.750000
v 13.750000 10.050000 13.750000
v 13.750000 -0.050000 13.750000
v 13.750000 10.050000 -13.750000
v 13.750000 -0.050000 -13.750000

# UV coordinates
vt 0.000000 0.833777
vt 0.000000 0.667553
vt 0.332447 0.667553
vt 0.332447 0.833777
vt 0.500000 0.167553
vt 0.167553 0.167554
vt 0.167553 0.150931
vt 0.500000 0.150931
vt 0.500000 0.500000
vt 0.516622 0.167553
vt 0.516623 0.500000
vt 0.167554 0.500000
vt 0.000000 1.000000
vt 0.332447 1.000000
vt 0.500000 0.516622
vt 0.500000 0.650931
vt 0.167554 0.650931
vt 0.167554 0.516623
vt 0.150931 0.500000
vt 0.150931 0.167554
vt 0.650931 0.167553
vt 0.516622 0.150931
vt 0.650931 0.150931
vt 0.800532 0.000000
vt 0.800532 0.332447
vt 0.667553 0.332447
vt 0.667553 0.000000
vt 0.667553 0.632978
vt 0.667553 0.500000
vt 0.684176 0.500000
vt 0.684176 0.634308
vt 0.667553 0.634308
vt 0.650931 0.500000
vt 0.667553 0.483377
vt 0.684176 0.483377
vt 0.797872 0.933511
vt 0.631649 0.933511
vt 0.465425 0.933511
vt 0.465425 0.800532
vt 0.797872 0.800532
vt 0.167553 0.016623
vt 0.500000 0.016622
vt 0.465425 0.667553
vt 0.797872 0.667553
vt 0.167553 0.000000
vt 0.500000 0.000000
vt 0.000000 0.500000
vt 0.000000 0.167554
vt 0.016622 0.167554
vt 0.016622 0.500000
vt 0.667553 0.167553
vt 0.465425 1.000000
vt 0.500000 0.667553
vt 0.167554 0.667553
vt 0.667553 0.349069
vt 0.684176 0.349069
vt 0.684176 0.332447
vt 0.650931 0.516622
vt 0.516623 0.516622
vt 0.516622 0.016622
vt 0.667553 0.150931
vt 0.016622 0.150931
vt 0.150931 0.150931
vt 0.150931 0.016623
vt 0.150931 0.000000
vt 0.150931 0.650931
vt 0.150931 0.516623
vt 0.016623 0.516623
vt 0.000000 0.516622

# vertex normals
vn 0.000000 1.000000 0.000000
vn 0.000000 -1.000000 0.000000
vn 0.000000 0.000000 -1.000000
vn -1.000000 0.000000 0.000000
vn 1.000000 0.000000 0.000000
vn 0.000000 0.000000 1.000000

# Mesh
g Platform_Cube
usemtl Platform
f 4/4/1 1/1/1 2/2/1
f 2/2/1 3/3/1 4/4/1
f 8/8/2 5/5/2 6/6/2
f 6/6/2 7/7/2 8/8/2
f 11/11/2 9/9/2 5/5/2
f 5/5/2 10/10/2 11/11/2
f 5/5/2 9/9/2 12/12/2
f 12/12/2 6/6/2 5/5/2
f 14/14/1 13/13/1 1/1/1
f 1/1/1 4/4/1 14/14/1
f 18/18/3 15/15/3 16/16/3
f 16/16/3 17/17/3 18/18/3
f 20/20/2 6/6/2 12/12/2
f 12/12/2 19/19/2 20/20/2
f 23/23/4 21/21/4 10/10/4
f 10/10/4 22/22/4 23/23/4
f 25/27/5 3/24/5 2/25/5
f 2/25/5 24/26/5 25/27/5
f 9/32/4 2/28/4 24/29/4
f 9/32/4 24/29/4 16/30/4
f 16/30/4 15/31/4 9/32/4
f 11/11/4 10/10/4 21/21/4
f 21/21/4 26/33/4 11/11/4
f 18/18/2 12/12/2 9/9/2
f 9/9/2 15/15/2 18/18/2
f 15/35/2 9/30/2 11/29/2
f 11/29/2 27/34/2 15/35/2
f 24/40/6 2/36/6 1/37/6
f 24/40/6 1/37/6 13/38/6
f 13/38/6 28/39/6 24/40/6
f 8/8/6 7/7/6 29/41/6
f 29/41/6 30/42/6 8/8/6
f 28/39/4 13/43/4 14/44/4
f 14/44/4 31/40/4 28/39/4
f 29/41/1 31/45/1 25/46/1
f 25/46/1 30/42/1 29/41/1
f 33/50/1 28/47/1 31/48/1
f 31/48/1 32/49/1 33/50/1
f 21/21/1 25/51/1 24/29/1
f 24/29/1 26/33/1 21/21/1
f 14/14/3 4/4/3 3/3/3
f 14/14/3 3/3/3 25/43/3
f 25/43/3 31/52/3 14/14/3
f 20/20/5 19/19/5 33/50/5
f 33/50/5 32/49/5 20/20/5
f 16/16/1 24/53/1 28/54/1
f 28/54/1 17/17/1 16/16/1
f 16/56/3 15/35/3 27/34/3
f 27/34/3 34/55/3 16/56/3
f 34/55/1 26/26/1 24/57/1
f 24/57/1 16/56/1 34/55/1
f 27/59/4 11/11/4 26/33/4
f 26/33/4 34/58/4 27/59/4
f 8/8/6 30/42/6 23/60/6
f 23/60/6 22/22/6 8/8/6
f 30/61/1 25/51/1 21/21/1
f 21/21/1 23/23/1 30/61/1
f 22/22/2 10/10/2 5/5/2
f 5/5/2 8/8/2 22/22/2
f 36/63/5 20/20/5 32/49/5
f 32/49/5 35/62/5 36/63/5
f 36/63/2 7/7/2 6/6/2
f 6/6/2 20/20/2 36/63/2
f 32/65/1 31/45/1 29/41/1
f 29/41/1 35/64/1 32/65/1
f 35/64/6 29/41/6 7/7/6
f 7/7/6 36/63/6 35/64/6
f 18/18/3 17/17/3 37/66/3
f 37/66/3 38/67/3 18/18/3
f 37/68/5 33/50/5 19/19/5
f 19/19/5 38/67/5 37/68/5
f 38/67/2 19/19/2 12/12/2
f 12/12/2 18/18/2 38/67/2
f 17/69/1 28/47/1 33/50/1
f 33/50/1 37/68/1 17/69/1
